<mxfile host="app.diagrams.net" modified="2024-04-23T09:22:03.869Z" agent="Mozilla/5.0 (Windows NT 10.0; Win64; x64) AppleWebKit/537.36 (KHTML, like Gecko) Chrome/123.0.0.0 Safari/537.36" etag="2vFgO8SbdquUcynq-PjM" version="24.0.1" type="github">
  <diagram name="Page-1" id="FPIdoWPQeFc5p-aKN6lN">
    <mxGraphModel dx="5900" dy="2088" grid="1" gridSize="10" guides="1" tooltips="1" connect="1" arrows="1" fold="1" page="1" pageScale="1" pageWidth="850" pageHeight="1100" math="0" shadow="0">
      <root>
        <mxCell id="0" />
        <mxCell id="1" parent="0" />
        <mxCell id="pU5N5NDGk-DLxR4kdM4--10" value="" style="group" parent="1" vertex="1" connectable="0">
          <mxGeometry x="-800.0022222222221" y="40" width="250" height="250" as="geometry" />
        </mxCell>
        <mxCell id="di7hwIyVcmxTyqmBg4su-2" value="&lt;font style=&quot;font-size: 24px;&quot;&gt;Program_Counter&lt;/font&gt;" style="whiteSpace=wrap;html=1;aspect=fixed;verticalAlign=top;" parent="pU5N5NDGk-DLxR4kdM4--10" vertex="1">
          <mxGeometry x="0.0022222024692619942" width="249.99777779753074" height="249.99777779753074" as="geometry" />
        </mxCell>
        <mxCell id="pU5N5NDGk-DLxR4kdM4--3" value="clk_i" style="edgeLabel;html=1;align=left;verticalAlign=middle;resizable=0;points=[];" parent="pU5N5NDGk-DLxR4kdM4--10" vertex="1" connectable="0">
          <mxGeometry y="39.52" as="geometry" />
        </mxCell>
        <mxCell id="pU5N5NDGk-DLxR4kdM4--4" value="reset_i" style="edgeLabel;html=1;align=left;verticalAlign=middle;resizable=0;points=[];" parent="pU5N5NDGk-DLxR4kdM4--10" vertex="1" connectable="0">
          <mxGeometry y="79.52" as="geometry" />
        </mxCell>
        <mxCell id="pU5N5NDGk-DLxR4kdM4--5" value="PC_load_i" style="edgeLabel;html=1;align=left;verticalAlign=middle;resizable=0;points=[];" parent="pU5N5NDGk-DLxR4kdM4--10" vertex="1" connectable="0">
          <mxGeometry y="119.52" as="geometry" />
        </mxCell>
        <mxCell id="pU5N5NDGk-DLxR4kdM4--6" value="PC_inc_i" style="edgeLabel;html=1;align=left;verticalAlign=middle;resizable=0;points=[];" parent="pU5N5NDGk-DLxR4kdM4--10" vertex="1" connectable="0">
          <mxGeometry y="159.52" as="geometry" />
        </mxCell>
        <mxCell id="pU5N5NDGk-DLxR4kdM4--7" value="addr_i (8)" style="edgeLabel;html=1;align=left;verticalAlign=middle;resizable=0;points=[];" parent="pU5N5NDGk-DLxR4kdM4--10" vertex="1" connectable="0">
          <mxGeometry y="199.52" as="geometry" />
        </mxCell>
        <mxCell id="pU5N5NDGk-DLxR4kdM4--8" value="PC_o (8)" style="edgeLabel;html=1;align=right;verticalAlign=middle;resizable=0;points=[];" parent="pU5N5NDGk-DLxR4kdM4--10" vertex="1" connectable="0">
          <mxGeometry x="249.99777779753077" y="119.51999999999998" as="geometry" />
        </mxCell>
        <mxCell id="pU5N5NDGk-DLxR4kdM4--79" value="" style="group" parent="1" vertex="1" connectable="0">
          <mxGeometry x="-480" y="40" width="250" height="250" as="geometry" />
        </mxCell>
        <mxCell id="di7hwIyVcmxTyqmBg4su-104" value="&lt;font style=&quot;font-size: 22px;&quot;&gt;Instruction_Register&lt;/font&gt;" style="rounded=0;whiteSpace=wrap;html=1;verticalAlign=top;" parent="pU5N5NDGk-DLxR4kdM4--79" vertex="1">
          <mxGeometry width="250" height="250" as="geometry" />
        </mxCell>
        <mxCell id="pU5N5NDGk-DLxR4kdM4--29" value="reset_i" style="edgeLabel;html=1;align=left;verticalAlign=middle;resizable=0;points=[];" parent="pU5N5NDGk-DLxR4kdM4--79" vertex="1" connectable="0">
          <mxGeometry x="0.002592592592634446" y="100" as="geometry" />
        </mxCell>
        <mxCell id="pU5N5NDGk-DLxR4kdM4--30" value="IR_load_i" style="edgeLabel;html=1;align=left;verticalAlign=middle;resizable=0;points=[];" parent="pU5N5NDGk-DLxR4kdM4--79" vertex="1" connectable="0">
          <mxGeometry x="0.002592592592634446" y="150" as="geometry" />
        </mxCell>
        <mxCell id="pU5N5NDGk-DLxR4kdM4--31" value="IR_i (14)" style="edgeLabel;html=1;align=left;verticalAlign=middle;resizable=0;points=[];" parent="pU5N5NDGk-DLxR4kdM4--79" vertex="1" connectable="0">
          <mxGeometry x="0.002592592592634446" y="200.00000000000006" as="geometry" />
        </mxCell>
        <mxCell id="pU5N5NDGk-DLxR4kdM4--32" value="clk_i" style="edgeLabel;html=1;align=left;verticalAlign=middle;resizable=0;points=[];" parent="pU5N5NDGk-DLxR4kdM4--79" vertex="1" connectable="0">
          <mxGeometry x="0.002592592592634446" y="50.00000000000003" as="geometry" />
        </mxCell>
        <mxCell id="pU5N5NDGk-DLxR4kdM4--33" value="operande_o (8)" style="edgeLabel;html=1;align=right;verticalAlign=middle;resizable=0;points=[];" parent="pU5N5NDGk-DLxR4kdM4--79" vertex="1" connectable="0">
          <mxGeometry x="249.999484704853" y="104.99993792137005" as="geometry" />
        </mxCell>
        <mxCell id="pU5N5NDGk-DLxR4kdM4--34" value="opcode_o (6)" style="edgeLabel;html=1;align=right;verticalAlign=middle;resizable=0;points=[];" parent="pU5N5NDGk-DLxR4kdM4--79" vertex="1" connectable="0">
          <mxGeometry x="249.999484704853" y="144.99993792137005" as="geometry" />
        </mxCell>
        <mxCell id="pU5N5NDGk-DLxR4kdM4--80" value="" style="group" parent="1" vertex="1" connectable="0">
          <mxGeometry x="-160" y="40" width="250" height="250" as="geometry" />
        </mxCell>
        <mxCell id="9xyX19tClgwM5pYCOrdM-19" value="&lt;font style=&quot;font-size: 24px;&quot;&gt;Operandes_Register&lt;/font&gt;" style="rounded=0;whiteSpace=wrap;html=1;container=0;verticalAlign=top;" parent="pU5N5NDGk-DLxR4kdM4--80" vertex="1">
          <mxGeometry width="250" height="250" as="geometry" />
        </mxCell>
        <mxCell id="pU5N5NDGk-DLxR4kdM4--21" value="clk_i" style="edgeLabel;html=1;align=left;verticalAlign=middle;resizable=0;points=[];container=0;fontSize=12;" parent="pU5N5NDGk-DLxR4kdM4--80" vertex="1" connectable="0">
          <mxGeometry x="0.0021672868805069356" y="53.02959455275135" as="geometry" />
        </mxCell>
        <mxCell id="pU5N5NDGk-DLxR4kdM4--22" value="oper1_i (8)" style="edgeLabel;html=1;align=left;verticalAlign=middle;resizable=0;points=[];container=0;fontSize=12;" parent="pU5N5NDGk-DLxR4kdM4--80" vertex="1" connectable="0">
          <mxGeometry x="0.0021672868805069356" y="89" as="geometry" />
        </mxCell>
        <mxCell id="pU5N5NDGk-DLxR4kdM4--23" value="oper2_i (8)" style="edgeLabel;html=1;align=left;verticalAlign=middle;resizable=0;points=[];container=0;fontSize=12;" parent="pU5N5NDGk-DLxR4kdM4--80" vertex="1" connectable="0">
          <mxGeometry x="0.0021672868805069356" y="125" as="geometry" />
        </mxCell>
        <mxCell id="pU5N5NDGk-DLxR4kdM4--24" value="oper_load_i" style="edgeLabel;html=1;align=left;verticalAlign=middle;resizable=0;points=[];container=0;fontSize=12;" parent="pU5N5NDGk-DLxR4kdM4--80" vertex="1" connectable="0">
          <mxGeometry x="0.0021672868805069356" y="161" as="geometry" />
        </mxCell>
        <mxCell id="pU5N5NDGk-DLxR4kdM4--25" value="reset_i" style="edgeLabel;html=1;align=left;verticalAlign=middle;resizable=0;points=[];container=0;fontSize=12;" parent="pU5N5NDGk-DLxR4kdM4--80" vertex="1" connectable="0">
          <mxGeometry x="0.0021672868805069356" y="196.97492753706993" as="geometry" />
        </mxCell>
        <mxCell id="pU5N5NDGk-DLxR4kdM4--26" value="operande2_o (8)" style="edgeLabel;html=1;align=right;verticalAlign=middle;resizable=0;points=[];container=0;fontSize=12;" parent="pU5N5NDGk-DLxR4kdM4--80" vertex="1" connectable="0">
          <mxGeometry x="249.99602402236903" y="143.0456497594618" as="geometry" />
        </mxCell>
        <mxCell id="pU5N5NDGk-DLxR4kdM4--27" value="operande1_o (8)" style="edgeLabel;html=1;align=right;verticalAlign=middle;resizable=0;points=[];container=0;fontSize=12;" parent="pU5N5NDGk-DLxR4kdM4--80" vertex="1" connectable="0">
          <mxGeometry x="249.99602402236903" y="106.9474354737477" as="geometry" />
        </mxCell>
        <mxCell id="pU5N5NDGk-DLxR4kdM4--81" value="" style="group" parent="1" vertex="1" connectable="0">
          <mxGeometry x="160" y="40" width="250" height="250" as="geometry" />
        </mxCell>
        <mxCell id="9xyX19tClgwM5pYCOrdM-34" value="ALU" style="rounded=0;whiteSpace=wrap;html=1;container=0;verticalAlign=top;fontSize=24;" parent="pU5N5NDGk-DLxR4kdM4--81" vertex="1">
          <mxGeometry x="0.0002796975969374671" width="249.9997203024031" height="250" as="geometry" />
        </mxCell>
        <mxCell id="pU5N5NDGk-DLxR4kdM4--36" value="opcode_i (6)" style="edgeLabel;html=1;align=left;verticalAlign=middle;resizable=0;points=[];container=0;fontSize=12;" parent="pU5N5NDGk-DLxR4kdM4--81" vertex="1" connectable="0">
          <mxGeometry y="59.45798784118338" as="geometry" />
        </mxCell>
        <mxCell id="pU5N5NDGk-DLxR4kdM4--37" value="operande1_i (8)" style="edgeLabel;html=1;align=left;verticalAlign=middle;resizable=0;points=[];container=0;fontSize=12;" parent="pU5N5NDGk-DLxR4kdM4--81" vertex="1" connectable="0">
          <mxGeometry x="0.0016059834667032646" y="102.46000000000001" as="geometry" />
        </mxCell>
        <mxCell id="pU5N5NDGk-DLxR4kdM4--38" value="operande2_i (8)" style="edgeLabel;html=1;align=left;verticalAlign=middle;resizable=0;points=[];container=0;fontSize=12;" parent="pU5N5NDGk-DLxR4kdM4--81" vertex="1" connectable="0">
          <mxGeometry x="0.004215834133418639" y="146.46" as="geometry" />
        </mxCell>
        <mxCell id="pU5N5NDGk-DLxR4kdM4--39" value="CCR_i (4)" style="edgeLabel;html=1;align=left;verticalAlign=middle;resizable=0;points=[];container=0;fontSize=12;" parent="pU5N5NDGk-DLxR4kdM4--81" vertex="1" connectable="0">
          <mxGeometry x="0.004215834133418639" y="189.457899851824" as="geometry" />
        </mxCell>
        <mxCell id="pU5N5NDGk-DLxR4kdM4--40" value="ALU_o (8)" style="edgeLabel;html=1;align=right;verticalAlign=middle;resizable=0;points=[];container=0;fontSize=12;" parent="pU5N5NDGk-DLxR4kdM4--81" vertex="1" connectable="0">
          <mxGeometry x="249.99574425822578" y="107.14010189632822" as="geometry" />
        </mxCell>
        <mxCell id="pU5N5NDGk-DLxR4kdM4--41" value="Z_C_V_N (4)" style="edgeLabel;html=1;align=right;verticalAlign=middle;resizable=0;points=[];container=0;fontSize=12;" parent="pU5N5NDGk-DLxR4kdM4--81" vertex="1" connectable="0">
          <mxGeometry x="248.95407875696577" y="142.85438761061394" as="geometry" />
        </mxCell>
        <mxCell id="pU5N5NDGk-DLxR4kdM4--82" value="" style="group" parent="1" vertex="1" connectable="0">
          <mxGeometry x="389.998398955051" y="330" width="251.03999999999996" height="250" as="geometry" />
        </mxCell>
        <mxCell id="9xyX19tClgwM5pYCOrdM-1" value="Operandes_Multiplexer" style="rounded=0;whiteSpace=wrap;html=1;verticalAlign=top;fontSize=24;" parent="pU5N5NDGk-DLxR4kdM4--82" vertex="1">
          <mxGeometry x="0.0016677279777468357" width="249.99592604527595" height="250" as="geometry" />
        </mxCell>
        <mxCell id="pU5N5NDGk-DLxR4kdM4--66" value="sel_i (3)" style="edgeLabel;html=1;align=left;verticalAlign=middle;resizable=0;points=[];" parent="pU5N5NDGk-DLxR4kdM4--82" vertex="1" connectable="0">
          <mxGeometry x="2.293250672298484" y="70.87746037929838" as="geometry" />
        </mxCell>
        <mxCell id="pU5N5NDGk-DLxR4kdM4--67" value="Accu_i (8)" style="edgeLabel;html=1;align=left;verticalAlign=middle;resizable=0;points=[];" parent="pU5N5NDGk-DLxR4kdM4--82" vertex="1" connectable="0">
          <mxGeometry y="107" as="geometry" />
        </mxCell>
        <mxCell id="pU5N5NDGk-DLxR4kdM4--68" value="const_i&amp;nbsp;(8)" style="edgeLabel;html=1;align=left;verticalAlign=middle;resizable=0;points=[];" parent="pU5N5NDGk-DLxR4kdM4--82" vertex="1" connectable="0">
          <mxGeometry x="1.4728000202401859" y="143" as="geometry" />
        </mxCell>
        <mxCell id="pU5N5NDGk-DLxR4kdM4--69" value="data_i&amp;nbsp;(8)" style="edgeLabel;html=1;align=left;verticalAlign=middle;resizable=0;points=[];" parent="pU5N5NDGk-DLxR4kdM4--82" vertex="1" connectable="0">
          <mxGeometry x="1.4728000202401859" y="179.11510189632816" as="geometry" />
        </mxCell>
        <mxCell id="pU5N5NDGk-DLxR4kdM4--70" value="oper1_o (8)" style="edgeLabel;html=1;align=right;verticalAlign=middle;resizable=0;points=[];" parent="pU5N5NDGk-DLxR4kdM4--82" vertex="1" connectable="0">
          <mxGeometry x="251.03999999999996" y="107.14188761061394" as="geometry" />
        </mxCell>
        <mxCell id="pU5N5NDGk-DLxR4kdM4--71" value="oper2_o (8)" style="edgeLabel;html=1;align=right;verticalAlign=middle;resizable=0;points=[];" parent="pU5N5NDGk-DLxR4kdM4--82" vertex="1" connectable="0">
          <mxGeometry x="249.9983503081446" y="142.8561733248996" as="geometry" />
        </mxCell>
        <mxCell id="pU5N5NDGk-DLxR4kdM4--83" value="" style="group" parent="1" vertex="1" connectable="0">
          <mxGeometry x="49.9962733850316" y="370" width="250" height="250" as="geometry" />
        </mxCell>
        <mxCell id="9xyX19tClgwM5pYCOrdM-66" value="W_Register" style="rounded=0;whiteSpace=wrap;html=1;container=0;verticalAlign=top;fontSize=24;" parent="pU5N5NDGk-DLxR4kdM4--83" vertex="1">
          <mxGeometry x="0.003881830316721846" width="249.99611816968326" height="250" as="geometry" />
        </mxCell>
        <mxCell id="pU5N5NDGk-DLxR4kdM4--73" value="Accu_o (8)" style="edgeLabel;html=1;align=right;verticalAlign=middle;resizable=0;points=[];container=0;" parent="pU5N5NDGk-DLxR4kdM4--83" vertex="1" connectable="0">
          <mxGeometry x="244.7941537667271" y="124.99903046775671" as="geometry" />
        </mxCell>
        <mxCell id="pU5N5NDGk-DLxR4kdM4--74" value="Accu_in (8)" style="edgeLabel;html=1;align=left;verticalAlign=middle;resizable=0;points=[];container=0;" parent="pU5N5NDGk-DLxR4kdM4--83" vertex="1" connectable="0">
          <mxGeometry x="0.0035984075023804962" y="70.88613720287543" as="geometry" />
        </mxCell>
        <mxCell id="pU5N5NDGk-DLxR4kdM4--75" value="Accu_load_i" style="edgeLabel;html=1;align=left;verticalAlign=middle;resizable=0;points=[];container=0;" parent="pU5N5NDGk-DLxR4kdM4--83" vertex="1" connectable="0">
          <mxGeometry y="107" as="geometry" />
        </mxCell>
        <mxCell id="pU5N5NDGk-DLxR4kdM4--76" value="clk_i" style="edgeLabel;html=1;align=left;verticalAlign=middle;resizable=0;points=[];container=0;" parent="pU5N5NDGk-DLxR4kdM4--83" vertex="1" connectable="0">
          <mxGeometry x="0.007817867957037095" y="143" as="geometry" />
        </mxCell>
        <mxCell id="pU5N5NDGk-DLxR4kdM4--77" value="reset_i" style="edgeLabel;html=1;align=left;verticalAlign=middle;resizable=0;points=[];container=0;" parent="pU5N5NDGk-DLxR4kdM4--83" vertex="1" connectable="0">
          <mxGeometry x="0.007817867957037095" y="179.11795666995977" as="geometry" />
        </mxCell>
        <mxCell id="pU5N5NDGk-DLxR4kdM4--84" value="" style="group" parent="1" vertex="1" connectable="0">
          <mxGeometry x="-279.9897112298471" y="360" width="249.9927740642239" height="250" as="geometry" />
        </mxCell>
        <mxCell id="9xyX19tClgwM5pYCOrdM-53" value="Status_Register" style="rounded=0;whiteSpace=wrap;html=1;container=0;verticalAlign=top;fontSize=24;" parent="pU5N5NDGk-DLxR4kdM4--84" vertex="1">
          <mxGeometry width="249.9903678909752" height="250" as="geometry" />
        </mxCell>
        <mxCell id="pU5N5NDGk-DLxR4kdM4--56" value="CCR_o (4)" style="edgeLabel;html=1;align=right;verticalAlign=middle;resizable=0;points=[];container=0;" parent="pU5N5NDGk-DLxR4kdM4--84" vertex="1" connectable="0">
          <mxGeometry x="249.9927740642239" y="124.99903046775694" as="geometry" />
        </mxCell>
        <mxCell id="pU5N5NDGk-DLxR4kdM4--61" value="clk_i" style="edgeLabel;html=1;align=left;verticalAlign=middle;resizable=0;points=[];container=0;" parent="pU5N5NDGk-DLxR4kdM4--84" vertex="1" connectable="0">
          <mxGeometry x="0.002774064223899586" y="70.88695970879007" as="geometry" />
        </mxCell>
        <mxCell id="pU5N5NDGk-DLxR4kdM4--62" value="reset_i" style="edgeLabel;html=1;align=left;verticalAlign=middle;resizable=0;points=[];container=0;" parent="pU5N5NDGk-DLxR4kdM4--84" vertex="1" connectable="0">
          <mxGeometry x="0.006115772863154234" y="107" as="geometry" />
        </mxCell>
        <mxCell id="pU5N5NDGk-DLxR4kdM4--63" value="CCR_load_i" style="edgeLabel;html=1;align=left;verticalAlign=middle;resizable=0;points=[];container=0;" parent="pU5N5NDGk-DLxR4kdM4--84" vertex="1" connectable="0">
          <mxGeometry x="0.010463971146748463" y="143" as="geometry" />
        </mxCell>
        <mxCell id="pU5N5NDGk-DLxR4kdM4--64" value="CCR_i (4)" style="edgeLabel;html=1;align=left;verticalAlign=middle;resizable=0;points=[];container=0;" parent="pU5N5NDGk-DLxR4kdM4--84" vertex="1" connectable="0">
          <mxGeometry x="0.010463971146748463" y="179.11780515493103" as="geometry" />
        </mxCell>
        <mxCell id="pU5N5NDGk-DLxR4kdM4--85" value="" style="group" parent="1" vertex="1" connectable="0">
          <mxGeometry x="697.9964654910536" y="30" width="352.00501599042764" height="350" as="geometry" />
        </mxCell>
        <mxCell id="di7hwIyVcmxTyqmBg4su-79" value="Sequenceur" style="rounded=0;whiteSpace=wrap;html=1;verticalAlign=top;fontSize=24;" parent="pU5N5NDGk-DLxR4kdM4--85" vertex="1">
          <mxGeometry x="0.003534508946358983" width="350" height="350" as="geometry" />
        </mxCell>
        <mxCell id="pU5N5NDGk-DLxR4kdM4--43" value="PC_inc_o" style="edgeLabel;html=1;align=right;verticalAlign=middle;resizable=0;points=[];" parent="pU5N5NDGk-DLxR4kdM4--85" vertex="1" connectable="0">
          <mxGeometry x="350.00501599042764" y="35" as="geometry" />
        </mxCell>
        <mxCell id="pU5N5NDGk-DLxR4kdM4--44" value="PC_load_o" style="edgeLabel;html=1;align=right;verticalAlign=middle;resizable=0;points=[];" parent="pU5N5NDGk-DLxR4kdM4--85" vertex="1" connectable="0">
          <mxGeometry x="350.00501599042764" y="75" as="geometry" />
        </mxCell>
        <mxCell id="pU5N5NDGk-DLxR4kdM4--45" value="IR_load_o" style="edgeLabel;html=1;align=right;verticalAlign=middle;resizable=0;points=[];" parent="pU5N5NDGk-DLxR4kdM4--85" vertex="1" connectable="0">
          <mxGeometry x="350.00501599042764" y="115" as="geometry" />
        </mxCell>
        <mxCell id="pU5N5NDGk-DLxR4kdM4--46" value="oper_sel_o (3)" style="edgeLabel;html=1;align=right;verticalAlign=middle;resizable=0;points=[];" parent="pU5N5NDGk-DLxR4kdM4--85" vertex="1" connectable="0">
          <mxGeometry x="352.00501599042764" y="155" as="geometry" />
        </mxCell>
        <mxCell id="pU5N5NDGk-DLxR4kdM4--47" value="oper_load_o" style="edgeLabel;html=1;align=right;verticalAlign=middle;resizable=0;points=[];" parent="pU5N5NDGk-DLxR4kdM4--85" vertex="1" connectable="0">
          <mxGeometry x="350.00501599042764" y="195" as="geometry" />
        </mxCell>
        <mxCell id="pU5N5NDGk-DLxR4kdM4--48" value="Accu_load_o" style="edgeLabel;html=1;align=right;verticalAlign=middle;resizable=0;points=[];" parent="pU5N5NDGk-DLxR4kdM4--85" vertex="1" connectable="0">
          <mxGeometry x="350.00501599042764" y="235" as="geometry" />
        </mxCell>
        <mxCell id="pU5N5NDGk-DLxR4kdM4--49" value="CCR_load_o" style="edgeLabel;html=1;align=right;verticalAlign=middle;resizable=0;points=[];" parent="pU5N5NDGk-DLxR4kdM4--85" vertex="1" connectable="0">
          <mxGeometry x="350.00501599042764" y="275" as="geometry" />
        </mxCell>
        <mxCell id="pU5N5NDGk-DLxR4kdM4--50" value="data_wr_o" style="edgeLabel;html=1;align=right;verticalAlign=middle;resizable=0;points=[];" parent="pU5N5NDGk-DLxR4kdM4--85" vertex="1" connectable="0">
          <mxGeometry x="350.00501599042764" y="315" as="geometry" />
        </mxCell>
        <mxCell id="pU5N5NDGk-DLxR4kdM4--51" value="reset_i" style="edgeLabel;html=1;align=left;verticalAlign=middle;resizable=0;points=[];" parent="pU5N5NDGk-DLxR4kdM4--85" vertex="1" connectable="0">
          <mxGeometry y="153" as="geometry" />
        </mxCell>
        <mxCell id="pU5N5NDGk-DLxR4kdM4--52" value="CCR_i (4)" style="edgeLabel;html=1;align=left;verticalAlign=middle;resizable=0;points=[];" parent="pU5N5NDGk-DLxR4kdM4--85" vertex="1" connectable="0">
          <mxGeometry y="240.004241858383" as="geometry" />
        </mxCell>
        <mxCell id="pU5N5NDGk-DLxR4kdM4--53" value="clk_i" style="edgeLabel;html=1;align=left;verticalAlign=middle;resizable=0;points=[];" parent="pU5N5NDGk-DLxR4kdM4--85" vertex="1" connectable="0">
          <mxGeometry y="110.00424185838295" as="geometry" />
        </mxCell>
        <mxCell id="pU5N5NDGk-DLxR4kdM4--54" value="opcode_i (6)" style="edgeLabel;html=1;align=left;verticalAlign=middle;resizable=0;points=[];" parent="pU5N5NDGk-DLxR4kdM4--85" vertex="1" connectable="0">
          <mxGeometry y="197" as="geometry" />
        </mxCell>
        <mxCell id="0-Zf8QYv5fdY0WKtleOx-1" value="NanoProcessor" style="rounded=0;whiteSpace=wrap;html=1;verticalAlign=top;fontSize=72;" parent="1" vertex="1">
          <mxGeometry x="-930" y="690" width="2730" height="1800" as="geometry" />
        </mxCell>
        <mxCell id="0-Zf8QYv5fdY0WKtleOx-2" value="" style="group" parent="1" vertex="1" connectable="0">
          <mxGeometry x="-130.00353450894636" y="1110" width="352.00501599042764" height="350" as="geometry" />
        </mxCell>
        <mxCell id="0-Zf8QYv5fdY0WKtleOx-3" value="Sequenceur" style="rounded=0;whiteSpace=wrap;html=1;verticalAlign=top;fontSize=24;" parent="0-Zf8QYv5fdY0WKtleOx-2" vertex="1">
          <mxGeometry x="0.003534508946358983" width="350" height="350" as="geometry" />
        </mxCell>
        <mxCell id="0-Zf8QYv5fdY0WKtleOx-4" value="PC_inc_o" style="edgeLabel;html=1;align=right;verticalAlign=middle;resizable=0;points=[];" parent="0-Zf8QYv5fdY0WKtleOx-2" vertex="1" connectable="0">
          <mxGeometry x="350.00501599042764" y="35" as="geometry" />
        </mxCell>
        <mxCell id="0-Zf8QYv5fdY0WKtleOx-5" value="PC_load_o" style="edgeLabel;html=1;align=right;verticalAlign=middle;resizable=0;points=[];" parent="0-Zf8QYv5fdY0WKtleOx-2" vertex="1" connectable="0">
          <mxGeometry x="350.00501599042764" y="75" as="geometry" />
        </mxCell>
        <mxCell id="0-Zf8QYv5fdY0WKtleOx-6" value="IR_load_o" style="edgeLabel;html=1;align=right;verticalAlign=middle;resizable=0;points=[];" parent="0-Zf8QYv5fdY0WKtleOx-2" vertex="1" connectable="0">
          <mxGeometry x="350.00501599042764" y="115" as="geometry" />
        </mxCell>
        <mxCell id="0-Zf8QYv5fdY0WKtleOx-7" value="oper_sel_o (3)" style="edgeLabel;html=1;align=right;verticalAlign=middle;resizable=0;points=[];" parent="0-Zf8QYv5fdY0WKtleOx-2" vertex="1" connectable="0">
          <mxGeometry x="352.00501599042764" y="155" as="geometry" />
        </mxCell>
        <mxCell id="0-Zf8QYv5fdY0WKtleOx-8" value="oper_load_o" style="edgeLabel;html=1;align=right;verticalAlign=middle;resizable=0;points=[];" parent="0-Zf8QYv5fdY0WKtleOx-2" vertex="1" connectable="0">
          <mxGeometry x="350.00501599042764" y="195" as="geometry" />
        </mxCell>
        <mxCell id="0-Zf8QYv5fdY0WKtleOx-9" value="Accu_load_o" style="edgeLabel;html=1;align=right;verticalAlign=middle;resizable=0;points=[];" parent="0-Zf8QYv5fdY0WKtleOx-2" vertex="1" connectable="0">
          <mxGeometry x="350.00501599042764" y="235" as="geometry" />
        </mxCell>
        <mxCell id="0-Zf8QYv5fdY0WKtleOx-10" value="CCR_load_o" style="edgeLabel;html=1;align=right;verticalAlign=middle;resizable=0;points=[];" parent="0-Zf8QYv5fdY0WKtleOx-2" vertex="1" connectable="0">
          <mxGeometry x="350.00501599042764" y="275" as="geometry" />
        </mxCell>
        <mxCell id="0-Zf8QYv5fdY0WKtleOx-11" value="data_wr_o" style="edgeLabel;html=1;align=right;verticalAlign=middle;resizable=0;points=[];" parent="0-Zf8QYv5fdY0WKtleOx-2" vertex="1" connectable="0">
          <mxGeometry x="350.00501599042764" y="315" as="geometry" />
        </mxCell>
        <mxCell id="0-Zf8QYv5fdY0WKtleOx-12" value="reset_i" style="edgeLabel;html=1;align=left;verticalAlign=middle;resizable=0;points=[];" parent="0-Zf8QYv5fdY0WKtleOx-2" vertex="1" connectable="0">
          <mxGeometry y="153" as="geometry" />
        </mxCell>
        <mxCell id="0-Zf8QYv5fdY0WKtleOx-13" value="CCR_i (4)" style="edgeLabel;html=1;align=left;verticalAlign=middle;resizable=0;points=[];" parent="0-Zf8QYv5fdY0WKtleOx-2" vertex="1" connectable="0">
          <mxGeometry y="240.004241858383" as="geometry" />
        </mxCell>
        <mxCell id="0-Zf8QYv5fdY0WKtleOx-14" value="clk_i" style="edgeLabel;html=1;align=left;verticalAlign=middle;resizable=0;points=[];" parent="0-Zf8QYv5fdY0WKtleOx-2" vertex="1" connectable="0">
          <mxGeometry y="110.00424185838295" as="geometry" />
        </mxCell>
        <mxCell id="0-Zf8QYv5fdY0WKtleOx-15" value="opcode_i (6)" style="edgeLabel;html=1;align=left;verticalAlign=middle;resizable=0;points=[];" parent="0-Zf8QYv5fdY0WKtleOx-2" vertex="1" connectable="0">
          <mxGeometry y="197" as="geometry" />
        </mxCell>
        <mxCell id="9DxtKg8gXfVsGl6sE2eN-21" value="push_pop_o (2)" style="edgeLabel;html=1;align=right;verticalAlign=middle;resizable=0;points=[];" parent="0-Zf8QYv5fdY0WKtleOx-2" vertex="1" connectable="0">
          <mxGeometry x="350.00501599042764" y="10" as="geometry" />
        </mxCell>
        <mxCell id="0-Zf8QYv5fdY0WKtleOx-16" value="" style="group" parent="1" vertex="1" connectable="0">
          <mxGeometry x="-529.9997112298471" y="810" width="249.9927740642239" height="250" as="geometry" />
        </mxCell>
        <mxCell id="0-Zf8QYv5fdY0WKtleOx-17" value="Status_Register" style="rounded=0;whiteSpace=wrap;html=1;container=0;verticalAlign=top;fontSize=24;" parent="0-Zf8QYv5fdY0WKtleOx-16" vertex="1">
          <mxGeometry width="249.9903678909752" height="250" as="geometry" />
        </mxCell>
        <mxCell id="0-Zf8QYv5fdY0WKtleOx-18" value="CCR_o (4)" style="edgeLabel;html=1;align=right;verticalAlign=middle;resizable=0;points=[];container=0;" parent="0-Zf8QYv5fdY0WKtleOx-16" vertex="1" connectable="0">
          <mxGeometry x="249.9927740642239" y="124.99903046775694" as="geometry" />
        </mxCell>
        <mxCell id="0-Zf8QYv5fdY0WKtleOx-19" value="clk_i" style="edgeLabel;html=1;align=left;verticalAlign=middle;resizable=0;points=[];container=0;" parent="0-Zf8QYv5fdY0WKtleOx-16" vertex="1" connectable="0">
          <mxGeometry x="0.002774064223899586" y="70.88695970879007" as="geometry" />
        </mxCell>
        <mxCell id="0-Zf8QYv5fdY0WKtleOx-20" value="reset_i" style="edgeLabel;html=1;align=left;verticalAlign=middle;resizable=0;points=[];container=0;" parent="0-Zf8QYv5fdY0WKtleOx-16" vertex="1" connectable="0">
          <mxGeometry x="0.006115772863154234" y="107" as="geometry" />
        </mxCell>
        <mxCell id="0-Zf8QYv5fdY0WKtleOx-21" value="CCR_load_i" style="edgeLabel;html=1;align=left;verticalAlign=middle;resizable=0;points=[];container=0;" parent="0-Zf8QYv5fdY0WKtleOx-16" vertex="1" connectable="0">
          <mxGeometry x="0.010463971146748463" y="143" as="geometry" />
        </mxCell>
        <mxCell id="0-Zf8QYv5fdY0WKtleOx-22" value="CCR_i (4)" style="edgeLabel;html=1;align=left;verticalAlign=middle;resizable=0;points=[];container=0;" parent="0-Zf8QYv5fdY0WKtleOx-16" vertex="1" connectable="0">
          <mxGeometry x="0.010463971146748463" y="179.11780515493103" as="geometry" />
        </mxCell>
        <mxCell id="0-Zf8QYv5fdY0WKtleOx-23" value="" style="group" parent="1" vertex="1" connectable="0">
          <mxGeometry x="1149.9962733850316" y="1820" width="250" height="250" as="geometry" />
        </mxCell>
        <mxCell id="0-Zf8QYv5fdY0WKtleOx-24" value="W_Register" style="rounded=0;whiteSpace=wrap;html=1;container=0;verticalAlign=top;fontSize=24;" parent="0-Zf8QYv5fdY0WKtleOx-23" vertex="1">
          <mxGeometry x="0.003881830316721846" width="249.99611816968326" height="250" as="geometry" />
        </mxCell>
        <mxCell id="0-Zf8QYv5fdY0WKtleOx-25" value="Accu_o (8)" style="edgeLabel;html=1;align=right;verticalAlign=middle;resizable=0;points=[];container=0;" parent="0-Zf8QYv5fdY0WKtleOx-23" vertex="1" connectable="0">
          <mxGeometry x="244.7941537667271" y="124.99903046775671" as="geometry" />
        </mxCell>
        <mxCell id="0-Zf8QYv5fdY0WKtleOx-26" value="Accu_in (8)" style="edgeLabel;html=1;align=left;verticalAlign=middle;resizable=0;points=[];container=0;" parent="0-Zf8QYv5fdY0WKtleOx-23" vertex="1" connectable="0">
          <mxGeometry x="0.0035984075023804962" y="70.88613720287543" as="geometry" />
        </mxCell>
        <mxCell id="0-Zf8QYv5fdY0WKtleOx-27" value="Accu_load_i" style="edgeLabel;html=1;align=left;verticalAlign=middle;resizable=0;points=[];container=0;" parent="0-Zf8QYv5fdY0WKtleOx-23" vertex="1" connectable="0">
          <mxGeometry y="107" as="geometry" />
        </mxCell>
        <mxCell id="0-Zf8QYv5fdY0WKtleOx-28" value="clk_i" style="edgeLabel;html=1;align=left;verticalAlign=middle;resizable=0;points=[];container=0;" parent="0-Zf8QYv5fdY0WKtleOx-23" vertex="1" connectable="0">
          <mxGeometry x="0.007817867957037095" y="143" as="geometry" />
        </mxCell>
        <mxCell id="0-Zf8QYv5fdY0WKtleOx-29" value="reset_i" style="edgeLabel;html=1;align=left;verticalAlign=middle;resizable=0;points=[];container=0;" parent="0-Zf8QYv5fdY0WKtleOx-23" vertex="1" connectable="0">
          <mxGeometry x="0.007817867957037095" y="179.11795666995977" as="geometry" />
        </mxCell>
        <mxCell id="0-Zf8QYv5fdY0WKtleOx-30" value="" style="group" parent="1" vertex="1" connectable="0">
          <mxGeometry x="1199.9977777777779" y="990" width="250" height="250" as="geometry" />
        </mxCell>
        <mxCell id="0-Zf8QYv5fdY0WKtleOx-31" value="&lt;font style=&quot;font-size: 24px;&quot;&gt;Program_Counter&lt;/font&gt;" style="whiteSpace=wrap;html=1;aspect=fixed;verticalAlign=top;" parent="0-Zf8QYv5fdY0WKtleOx-30" vertex="1">
          <mxGeometry x="0.0022222024692619942" width="249.99777779753074" height="249.99777779753074" as="geometry" />
        </mxCell>
        <mxCell id="0-Zf8QYv5fdY0WKtleOx-32" value="clk_i" style="edgeLabel;html=1;align=left;verticalAlign=middle;resizable=0;points=[];" parent="0-Zf8QYv5fdY0WKtleOx-30" vertex="1" connectable="0">
          <mxGeometry y="50" as="geometry" />
        </mxCell>
        <mxCell id="0-Zf8QYv5fdY0WKtleOx-33" value="reset_i" style="edgeLabel;html=1;align=left;verticalAlign=middle;resizable=0;points=[];" parent="0-Zf8QYv5fdY0WKtleOx-30" vertex="1" connectable="0">
          <mxGeometry y="110" as="geometry" />
        </mxCell>
        <mxCell id="0-Zf8QYv5fdY0WKtleOx-34" value="PC_load_i" style="edgeLabel;html=1;align=left;verticalAlign=middle;resizable=0;points=[];" parent="0-Zf8QYv5fdY0WKtleOx-30" vertex="1" connectable="0">
          <mxGeometry y="140" as="geometry" />
        </mxCell>
        <mxCell id="0-Zf8QYv5fdY0WKtleOx-35" value="PC_inc_i" style="edgeLabel;html=1;align=left;verticalAlign=middle;resizable=0;points=[];" parent="0-Zf8QYv5fdY0WKtleOx-30" vertex="1" connectable="0">
          <mxGeometry y="170" as="geometry" />
        </mxCell>
        <mxCell id="0-Zf8QYv5fdY0WKtleOx-36" value="addr_i (8)" style="edgeLabel;html=1;align=left;verticalAlign=middle;resizable=0;points=[];" parent="0-Zf8QYv5fdY0WKtleOx-30" vertex="1" connectable="0">
          <mxGeometry y="200" as="geometry" />
        </mxCell>
        <mxCell id="0-Zf8QYv5fdY0WKtleOx-37" value="PC_o (8)" style="edgeLabel;html=1;align=right;verticalAlign=middle;resizable=0;points=[];" parent="0-Zf8QYv5fdY0WKtleOx-30" vertex="1" connectable="0">
          <mxGeometry x="249.99777779753077" y="119.51999999999998" as="geometry" />
        </mxCell>
        <mxCell id="9DxtKg8gXfVsGl6sE2eN-23" value="addr_restore_i (8)" style="edgeLabel;html=1;align=left;verticalAlign=middle;resizable=0;points=[];" parent="0-Zf8QYv5fdY0WKtleOx-30" vertex="1" connectable="0">
          <mxGeometry y="230" as="geometry" />
        </mxCell>
        <mxCell id="9DxtKg8gXfVsGl6sE2eN-27" value="restore_i" style="edgeLabel;html=1;align=left;verticalAlign=middle;resizable=0;points=[];" parent="0-Zf8QYv5fdY0WKtleOx-30" vertex="1" connectable="0">
          <mxGeometry y="80" as="geometry" />
        </mxCell>
        <mxCell id="0-Zf8QYv5fdY0WKtleOx-38" value="" style="group" parent="1" vertex="1" connectable="0">
          <mxGeometry x="-180" y="2140" width="250" height="250" as="geometry" />
        </mxCell>
        <mxCell id="0-Zf8QYv5fdY0WKtleOx-39" value="&lt;font style=&quot;font-size: 22px;&quot;&gt;Instruction_Register&lt;/font&gt;" style="rounded=0;whiteSpace=wrap;html=1;verticalAlign=top;" parent="0-Zf8QYv5fdY0WKtleOx-38" vertex="1">
          <mxGeometry width="250" height="250" as="geometry" />
        </mxCell>
        <mxCell id="0-Zf8QYv5fdY0WKtleOx-40" value="reset_i" style="edgeLabel;html=1;align=left;verticalAlign=middle;resizable=0;points=[];" parent="0-Zf8QYv5fdY0WKtleOx-38" vertex="1" connectable="0">
          <mxGeometry x="0.002592592592634446" y="100" as="geometry" />
        </mxCell>
        <mxCell id="0-Zf8QYv5fdY0WKtleOx-41" value="IR_load_i" style="edgeLabel;html=1;align=left;verticalAlign=middle;resizable=0;points=[];" parent="0-Zf8QYv5fdY0WKtleOx-38" vertex="1" connectable="0">
          <mxGeometry x="0.002592592592634446" y="150" as="geometry" />
        </mxCell>
        <mxCell id="0-Zf8QYv5fdY0WKtleOx-42" value="IR_i (14)" style="edgeLabel;html=1;align=left;verticalAlign=middle;resizable=0;points=[];" parent="0-Zf8QYv5fdY0WKtleOx-38" vertex="1" connectable="0">
          <mxGeometry x="0.002592592592634446" y="200.00000000000006" as="geometry" />
        </mxCell>
        <mxCell id="0-Zf8QYv5fdY0WKtleOx-43" value="clk_i" style="edgeLabel;html=1;align=left;verticalAlign=middle;resizable=0;points=[];" parent="0-Zf8QYv5fdY0WKtleOx-38" vertex="1" connectable="0">
          <mxGeometry x="0.002592592592634446" y="50.00000000000003" as="geometry" />
        </mxCell>
        <mxCell id="0-Zf8QYv5fdY0WKtleOx-44" value="operande_o (8)" style="edgeLabel;html=1;align=right;verticalAlign=middle;resizable=0;points=[];" parent="0-Zf8QYv5fdY0WKtleOx-38" vertex="1" connectable="0">
          <mxGeometry x="249.999484704853" y="104.99993792137005" as="geometry" />
        </mxCell>
        <mxCell id="0-Zf8QYv5fdY0WKtleOx-45" value="opcode_o (6)" style="edgeLabel;html=1;align=right;verticalAlign=middle;resizable=0;points=[];" parent="0-Zf8QYv5fdY0WKtleOx-38" vertex="1" connectable="0">
          <mxGeometry x="249.999484704853" y="144.99993792137005" as="geometry" />
        </mxCell>
        <mxCell id="0-Zf8QYv5fdY0WKtleOx-46" value="" style="group" parent="1" vertex="1" connectable="0">
          <mxGeometry x="1060" y="1430" width="250" height="250" as="geometry" />
        </mxCell>
        <mxCell id="0-Zf8QYv5fdY0WKtleOx-47" value="&lt;font style=&quot;font-size: 24px;&quot;&gt;Operandes_Register&lt;/font&gt;" style="rounded=0;whiteSpace=wrap;html=1;container=0;verticalAlign=top;" parent="0-Zf8QYv5fdY0WKtleOx-46" vertex="1">
          <mxGeometry width="250" height="250" as="geometry" />
        </mxCell>
        <mxCell id="0-Zf8QYv5fdY0WKtleOx-48" value="clk_i" style="edgeLabel;html=1;align=left;verticalAlign=middle;resizable=0;points=[];container=0;fontSize=12;" parent="0-Zf8QYv5fdY0WKtleOx-46" vertex="1" connectable="0">
          <mxGeometry x="0.0021672868805069356" y="53.02959455275135" as="geometry" />
        </mxCell>
        <mxCell id="0-Zf8QYv5fdY0WKtleOx-49" value="oper1_i (8)" style="edgeLabel;html=1;align=left;verticalAlign=middle;resizable=0;points=[];container=0;fontSize=12;" parent="0-Zf8QYv5fdY0WKtleOx-46" vertex="1" connectable="0">
          <mxGeometry x="0.0021672868805069356" y="89" as="geometry" />
        </mxCell>
        <mxCell id="0-Zf8QYv5fdY0WKtleOx-50" value="oper2_i (8)" style="edgeLabel;html=1;align=left;verticalAlign=middle;resizable=0;points=[];container=0;fontSize=12;" parent="0-Zf8QYv5fdY0WKtleOx-46" vertex="1" connectable="0">
          <mxGeometry x="0.0021672868805069356" y="125" as="geometry" />
        </mxCell>
        <mxCell id="0-Zf8QYv5fdY0WKtleOx-51" value="oper_load_i" style="edgeLabel;html=1;align=left;verticalAlign=middle;resizable=0;points=[];container=0;fontSize=12;" parent="0-Zf8QYv5fdY0WKtleOx-46" vertex="1" connectable="0">
          <mxGeometry x="0.0021672868805069356" y="161" as="geometry" />
        </mxCell>
        <mxCell id="0-Zf8QYv5fdY0WKtleOx-52" value="reset_i" style="edgeLabel;html=1;align=left;verticalAlign=middle;resizable=0;points=[];container=0;fontSize=12;" parent="0-Zf8QYv5fdY0WKtleOx-46" vertex="1" connectable="0">
          <mxGeometry x="0.0021672868805069356" y="196.97492753706993" as="geometry" />
        </mxCell>
        <mxCell id="0-Zf8QYv5fdY0WKtleOx-53" value="operande2_o (8)" style="edgeLabel;html=1;align=right;verticalAlign=middle;resizable=0;points=[];container=0;fontSize=12;" parent="0-Zf8QYv5fdY0WKtleOx-46" vertex="1" connectable="0">
          <mxGeometry x="249.99602402236903" y="143.0456497594618" as="geometry" />
        </mxCell>
        <mxCell id="0-Zf8QYv5fdY0WKtleOx-54" value="operande1_o (8)" style="edgeLabel;html=1;align=right;verticalAlign=middle;resizable=0;points=[];container=0;fontSize=12;" parent="0-Zf8QYv5fdY0WKtleOx-46" vertex="1" connectable="0">
          <mxGeometry x="249.99602402236903" y="106.9474354737477" as="geometry" />
        </mxCell>
        <mxCell id="0-Zf8QYv5fdY0WKtleOx-55" value="&lt;div style=&quot;font-size: 32px;&quot; align=&quot;left&quot;&gt;&lt;font style=&quot;font-size: 32px;&quot;&gt;clk_i&lt;/font&gt;&lt;/div&gt;" style="text;html=1;align=left;verticalAlign=middle;resizable=0;points=[];autosize=1;strokeColor=none;fillColor=none;" parent="1" vertex="1">
          <mxGeometry x="-930" y="1020" width="90" height="50" as="geometry" />
        </mxCell>
        <mxCell id="0-Zf8QYv5fdY0WKtleOx-63" value="" style="group" parent="1" vertex="1" connectable="0">
          <mxGeometry x="1460" y="1220" width="250" height="250" as="geometry" />
        </mxCell>
        <mxCell id="0-Zf8QYv5fdY0WKtleOx-64" value="ALU" style="rounded=0;whiteSpace=wrap;html=1;container=0;verticalAlign=top;fontSize=24;" parent="0-Zf8QYv5fdY0WKtleOx-63" vertex="1">
          <mxGeometry x="0.0002796975969374671" width="249.9997203024031" height="250" as="geometry" />
        </mxCell>
        <mxCell id="0-Zf8QYv5fdY0WKtleOx-65" value="opcode_i (6)" style="edgeLabel;html=1;align=left;verticalAlign=middle;resizable=0;points=[];container=0;fontSize=12;" parent="0-Zf8QYv5fdY0WKtleOx-63" vertex="1" connectable="0">
          <mxGeometry y="59.45798784118338" as="geometry" />
        </mxCell>
        <mxCell id="0-Zf8QYv5fdY0WKtleOx-66" value="operande1_i (8)" style="edgeLabel;html=1;align=left;verticalAlign=middle;resizable=0;points=[];container=0;fontSize=12;" parent="0-Zf8QYv5fdY0WKtleOx-63" vertex="1" connectable="0">
          <mxGeometry x="0.0016059834667032646" y="102.46000000000001" as="geometry" />
        </mxCell>
        <mxCell id="0-Zf8QYv5fdY0WKtleOx-67" value="operande2_i (8)" style="edgeLabel;html=1;align=left;verticalAlign=middle;resizable=0;points=[];container=0;fontSize=12;" parent="0-Zf8QYv5fdY0WKtleOx-63" vertex="1" connectable="0">
          <mxGeometry x="0.004215834133418639" y="146.46" as="geometry" />
        </mxCell>
        <mxCell id="0-Zf8QYv5fdY0WKtleOx-68" value="CCR_i (4)" style="edgeLabel;html=1;align=left;verticalAlign=middle;resizable=0;points=[];container=0;fontSize=12;" parent="0-Zf8QYv5fdY0WKtleOx-63" vertex="1" connectable="0">
          <mxGeometry x="0.004215834133418639" y="189.457899851824" as="geometry" />
        </mxCell>
        <mxCell id="0-Zf8QYv5fdY0WKtleOx-69" value="ALU_o (8)" style="edgeLabel;html=1;align=right;verticalAlign=middle;resizable=0;points=[];container=0;fontSize=12;" parent="0-Zf8QYv5fdY0WKtleOx-63" vertex="1" connectable="0">
          <mxGeometry x="249.99574425822578" y="107.14010189632822" as="geometry" />
        </mxCell>
        <mxCell id="0-Zf8QYv5fdY0WKtleOx-70" value="Z_C_V_N (4)" style="edgeLabel;html=1;align=right;verticalAlign=middle;resizable=0;points=[];container=0;fontSize=12;" parent="0-Zf8QYv5fdY0WKtleOx-63" vertex="1" connectable="0">
          <mxGeometry x="248.95407875696577" y="142.85438761061394" as="geometry" />
        </mxCell>
        <mxCell id="0-Zf8QYv5fdY0WKtleOx-71" value="" style="group" parent="1" vertex="1" connectable="0">
          <mxGeometry x="609.998398955051" y="1780" width="251.03999999999996" height="250" as="geometry" />
        </mxCell>
        <mxCell id="0-Zf8QYv5fdY0WKtleOx-72" value="Operandes_Multiplexer" style="rounded=0;whiteSpace=wrap;html=1;verticalAlign=top;fontSize=24;" parent="0-Zf8QYv5fdY0WKtleOx-71" vertex="1">
          <mxGeometry x="0.0016677279777468357" width="249.99592604527595" height="250" as="geometry" />
        </mxCell>
        <mxCell id="0-Zf8QYv5fdY0WKtleOx-73" value="sel_i (3)" style="edgeLabel;html=1;align=left;verticalAlign=middle;resizable=0;points=[];" parent="0-Zf8QYv5fdY0WKtleOx-71" vertex="1" connectable="0">
          <mxGeometry x="2.293250672298484" y="70.87746037929838" as="geometry" />
        </mxCell>
        <mxCell id="0-Zf8QYv5fdY0WKtleOx-74" value="Accu_i (8)" style="edgeLabel;html=1;align=left;verticalAlign=middle;resizable=0;points=[];" parent="0-Zf8QYv5fdY0WKtleOx-71" vertex="1" connectable="0">
          <mxGeometry y="107" as="geometry" />
        </mxCell>
        <mxCell id="0-Zf8QYv5fdY0WKtleOx-75" value="const_i&amp;nbsp;(8)" style="edgeLabel;html=1;align=left;verticalAlign=middle;resizable=0;points=[];" parent="0-Zf8QYv5fdY0WKtleOx-71" vertex="1" connectable="0">
          <mxGeometry x="1.4728000202401859" y="143" as="geometry" />
        </mxCell>
        <mxCell id="0-Zf8QYv5fdY0WKtleOx-76" value="data_i&amp;nbsp;(8)" style="edgeLabel;html=1;align=left;verticalAlign=middle;resizable=0;points=[];" parent="0-Zf8QYv5fdY0WKtleOx-71" vertex="1" connectable="0">
          <mxGeometry x="1.4728000202401859" y="179.11510189632816" as="geometry" />
        </mxCell>
        <mxCell id="0-Zf8QYv5fdY0WKtleOx-77" value="oper1_o (8)" style="edgeLabel;html=1;align=right;verticalAlign=middle;resizable=0;points=[];" parent="0-Zf8QYv5fdY0WKtleOx-71" vertex="1" connectable="0">
          <mxGeometry x="251.03999999999996" y="107.14188761061394" as="geometry" />
        </mxCell>
        <mxCell id="0-Zf8QYv5fdY0WKtleOx-78" value="oper2_o (8)" style="edgeLabel;html=1;align=right;verticalAlign=middle;resizable=0;points=[];" parent="0-Zf8QYv5fdY0WKtleOx-71" vertex="1" connectable="0">
          <mxGeometry x="249.9983503081446" y="142.8561733248996" as="geometry" />
        </mxCell>
        <mxCell id="0-Zf8QYv5fdY0WKtleOx-79" value="&lt;div&gt;PC_o(8)&lt;/div&gt;" style="text;html=1;align=right;verticalAlign=middle;resizable=0;points=[];autosize=1;strokeColor=none;fillColor=none;fontSize=32;" parent="1" vertex="1">
          <mxGeometry x="1660" y="1090" width="140" height="50" as="geometry" />
        </mxCell>
        <mxCell id="0-Zf8QYv5fdY0WKtleOx-80" value="" style="endArrow=classic;html=1;rounded=0;exitX=1;exitY=0.5;exitDx=0;exitDy=0;entryX=0;entryY=0.507;entryDx=0;entryDy=0;entryPerimeter=0;" parent="1" source="0-Zf8QYv5fdY0WKtleOx-31" target="0-Zf8QYv5fdY0WKtleOx-79" edge="1">
          <mxGeometry width="50" height="50" relative="1" as="geometry">
            <mxPoint x="920" y="1770" as="sourcePoint" />
            <mxPoint x="970" y="1720" as="targetPoint" />
          </mxGeometry>
        </mxCell>
        <mxCell id="0-Zf8QYv5fdY0WKtleOx-81" value="&lt;font style=&quot;font-size: 32px;&quot;&gt;reset_i&lt;/font&gt;" style="text;html=1;align=left;verticalAlign=middle;resizable=0;points=[];autosize=1;strokeColor=none;fillColor=none;" parent="1" vertex="1">
          <mxGeometry x="-930" y="1380" width="120" height="50" as="geometry" />
        </mxCell>
        <mxCell id="0-Zf8QYv5fdY0WKtleOx-88" value="&lt;font style=&quot;font-size: 32px;&quot;&gt;IR_i(14)&lt;/font&gt;" style="text;html=1;align=left;verticalAlign=middle;resizable=0;points=[];autosize=1;strokeColor=none;fillColor=none;" parent="1" vertex="1">
          <mxGeometry x="-930" y="2320" width="140" height="50" as="geometry" />
        </mxCell>
        <mxCell id="0-Zf8QYv5fdY0WKtleOx-89" value="" style="endArrow=classic;html=1;rounded=0;exitX=1.006;exitY=0.505;exitDx=0;exitDy=0;exitPerimeter=0;entryX=0.003;entryY=0.811;entryDx=0;entryDy=0;entryPerimeter=0;" parent="1" source="0-Zf8QYv5fdY0WKtleOx-88" target="0-Zf8QYv5fdY0WKtleOx-39" edge="1">
          <mxGeometry width="50" height="50" relative="1" as="geometry">
            <mxPoint x="-550" y="1960" as="sourcePoint" />
            <mxPoint x="-500" y="1910" as="targetPoint" />
          </mxGeometry>
        </mxCell>
        <mxCell id="0-Zf8QYv5fdY0WKtleOx-90" value="&lt;div&gt;addr_o(8)&lt;/div&gt;" style="text;html=1;align=right;verticalAlign=middle;resizable=0;points=[];autosize=1;strokeColor=none;fillColor=none;fontSize=32;" parent="1" vertex="1">
          <mxGeometry x="1640" y="2210" width="160" height="50" as="geometry" />
        </mxCell>
        <mxCell id="0-Zf8QYv5fdY0WKtleOx-91" value="&lt;font style=&quot;font-size: 32px;&quot;&gt;data_i(8)&lt;/font&gt;" style="text;html=1;align=left;verticalAlign=middle;resizable=0;points=[];autosize=1;strokeColor=none;fillColor=none;" parent="1" vertex="1">
          <mxGeometry x="-930" y="1940" width="150" height="50" as="geometry" />
        </mxCell>
        <mxCell id="0-Zf8QYv5fdY0WKtleOx-92" value="" style="endArrow=classic;html=1;rounded=0;exitX=1.012;exitY=0.471;exitDx=0;exitDy=0;exitPerimeter=0;entryX=-0.004;entryY=0.722;entryDx=0;entryDy=0;entryPerimeter=0;fillColor=#6a00ff;strokeColor=#3700CC;" parent="1" source="0-Zf8QYv5fdY0WKtleOx-91" target="0-Zf8QYv5fdY0WKtleOx-72" edge="1">
          <mxGeometry width="50" height="50" relative="1" as="geometry">
            <mxPoint x="-630" y="2010" as="sourcePoint" />
            <mxPoint x="-580" y="1960" as="targetPoint" />
          </mxGeometry>
        </mxCell>
        <mxCell id="0-Zf8QYv5fdY0WKtleOx-93" value="data_o(8)" style="text;html=1;align=right;verticalAlign=middle;resizable=0;points=[];autosize=1;strokeColor=none;fillColor=none;fontSize=32;" parent="1" vertex="1">
          <mxGeometry x="1640" y="1920" width="160" height="50" as="geometry" />
        </mxCell>
        <mxCell id="0-Zf8QYv5fdY0WKtleOx-94" value="data_wr_o" style="text;html=1;align=right;verticalAlign=middle;resizable=0;points=[];autosize=1;strokeColor=none;fillColor=none;fontSize=32;" parent="1" vertex="1">
          <mxGeometry x="1630" y="1670" width="170" height="50" as="geometry" />
        </mxCell>
        <mxCell id="0-Zf8QYv5fdY0WKtleOx-95" value="" style="endArrow=classic;html=1;rounded=0;exitX=1;exitY=0.909;exitDx=0;exitDy=0;exitPerimeter=0;entryX=-0.006;entryY=0.52;entryDx=0;entryDy=0;entryPerimeter=0;fillColor=#ffff88;strokeColor=#36393d;" parent="1" source="0-Zf8QYv5fdY0WKtleOx-3" target="0-Zf8QYv5fdY0WKtleOx-94" edge="1">
          <mxGeometry width="50" height="50" relative="1" as="geometry">
            <mxPoint x="790" y="2170" as="sourcePoint" />
            <mxPoint x="840" y="2120" as="targetPoint" />
            <Array as="points">
              <mxPoint x="780" y="1428" />
              <mxPoint x="780" y="1700" />
            </Array>
          </mxGeometry>
        </mxCell>
        <mxCell id="0-Zf8QYv5fdY0WKtleOx-96" value="loc_data_wr" style="edgeLabel;html=1;align=center;verticalAlign=middle;resizable=0;points=[];" parent="0-Zf8QYv5fdY0WKtleOx-95" vertex="1" connectable="0">
          <mxGeometry x="-0.1105" y="-3" relative="1" as="geometry">
            <mxPoint as="offset" />
          </mxGeometry>
        </mxCell>
        <mxCell id="0-Zf8QYv5fdY0WKtleOx-97" value="loc_CCR_load" style="endArrow=classic;html=1;rounded=0;entryX=-0.003;entryY=0.576;entryDx=0;entryDy=0;entryPerimeter=0;exitX=1.007;exitY=0.798;exitDx=0;exitDy=0;exitPerimeter=0;fillColor=#fff2cc;strokeColor=#d6b656;" parent="1" source="0-Zf8QYv5fdY0WKtleOx-3" target="0-Zf8QYv5fdY0WKtleOx-17" edge="1">
          <mxGeometry width="50" height="50" relative="1" as="geometry">
            <mxPoint y="1190" as="sourcePoint" />
            <mxPoint x="50" y="1140" as="targetPoint" />
            <Array as="points">
              <mxPoint x="270" y="1389" />
              <mxPoint x="270" y="1580" />
              <mxPoint x="-610" y="1580" />
              <mxPoint x="-610" y="954" />
            </Array>
          </mxGeometry>
        </mxCell>
        <mxCell id="0-Zf8QYv5fdY0WKtleOx-98" value="" style="endArrow=classic;html=1;rounded=0;entryX=0.013;entryY=0.291;entryDx=0;entryDy=0;entryPerimeter=0;exitX=1.013;exitY=0.447;exitDx=0;exitDy=0;exitPerimeter=0;fillColor=#76608a;strokeColor=#432D57;" parent="1" source="0-Zf8QYv5fdY0WKtleOx-3" target="0-Zf8QYv5fdY0WKtleOx-72" edge="1">
          <mxGeometry width="50" height="50" relative="1" as="geometry">
            <mxPoint x="-640" y="2200" as="sourcePoint" />
            <mxPoint x="-590" y="2150" as="targetPoint" />
            <Array as="points">
              <mxPoint x="370" y="1266" />
              <mxPoint x="370" y="1853" />
            </Array>
          </mxGeometry>
        </mxCell>
        <mxCell id="0-Zf8QYv5fdY0WKtleOx-143" value="loc_oper_sel" style="edgeLabel;html=1;align=center;verticalAlign=middle;resizable=0;points=[];" parent="0-Zf8QYv5fdY0WKtleOx-98" vertex="1" connectable="0">
          <mxGeometry x="-0.0945" y="1" relative="1" as="geometry">
            <mxPoint as="offset" />
          </mxGeometry>
        </mxCell>
        <mxCell id="0-Zf8QYv5fdY0WKtleOx-99" value="" style="endArrow=classic;html=1;rounded=0;exitX=1.008;exitY=0.436;exitDx=0;exitDy=0;exitPerimeter=0;entryX=-0.002;entryY=0.296;entryDx=0;entryDy=0;entryPerimeter=0;fillColor=#6a00ff;strokeColor=#3700CC;" parent="1" source="0-Zf8QYv5fdY0WKtleOx-64" target="0-Zf8QYv5fdY0WKtleOx-24" edge="1">
          <mxGeometry width="50" height="50" relative="1" as="geometry">
            <mxPoint x="580" y="1220" as="sourcePoint" />
            <mxPoint x="630" y="1170" as="targetPoint" />
            <Array as="points">
              <mxPoint x="1770" y="1329" />
              <mxPoint x="1770" y="1580" />
              <mxPoint x="1770" y="1740" />
              <mxPoint x="1530" y="1740" />
              <mxPoint x="1090" y="1740" />
              <mxPoint x="1090" y="1894" />
            </Array>
          </mxGeometry>
        </mxCell>
        <mxCell id="0-Zf8QYv5fdY0WKtleOx-102" value="loc_ALU" style="edgeLabel;html=1;align=center;verticalAlign=middle;resizable=0;points=[];" parent="0-Zf8QYv5fdY0WKtleOx-99" vertex="1" connectable="0">
          <mxGeometry x="0.014" y="-2" relative="1" as="geometry">
            <mxPoint as="offset" />
          </mxGeometry>
        </mxCell>
        <mxCell id="0-Zf8QYv5fdY0WKtleOx-100" value="" style="endArrow=classic;html=1;rounded=0;exitX=0.999;exitY=0.221;exitDx=0;exitDy=0;exitPerimeter=0;fillColor=#dae8fc;strokeColor=#6c8ebf;gradientColor=#7ea6e0;" parent="1" source="0-Zf8QYv5fdY0WKtleOx-3" edge="1">
          <mxGeometry width="50" height="50" relative="1" as="geometry">
            <mxPoint x="340" y="1590" as="sourcePoint" />
            <mxPoint x="1200" y="1130" as="targetPoint" />
            <Array as="points">
              <mxPoint x="350" y="1187" />
              <mxPoint x="350" y="1130" />
            </Array>
          </mxGeometry>
        </mxCell>
        <mxCell id="0-Zf8QYv5fdY0WKtleOx-103" value="" style="endArrow=classic;html=1;rounded=0;exitX=0.996;exitY=0.118;exitDx=0;exitDy=0;exitPerimeter=0;fillColor=#60a917;strokeColor=#2D7600;" parent="1" source="0-Zf8QYv5fdY0WKtleOx-3" edge="1">
          <mxGeometry width="50" height="50" relative="1" as="geometry">
            <mxPoint x="290" y="1570" as="sourcePoint" />
            <mxPoint x="1200" y="1160" as="targetPoint" />
          </mxGeometry>
        </mxCell>
        <mxCell id="0-Zf8QYv5fdY0WKtleOx-104" value="loc_PC_inc" style="edgeLabel;html=1;align=center;verticalAlign=middle;resizable=0;points=[];" parent="0-Zf8QYv5fdY0WKtleOx-103" vertex="1" connectable="0">
          <mxGeometry x="0.5521" y="-3" relative="1" as="geometry">
            <mxPoint as="offset" />
          </mxGeometry>
        </mxCell>
        <mxCell id="0-Zf8QYv5fdY0WKtleOx-105" value="loc_PC_load" style="edgeLabel;html=1;align=center;verticalAlign=middle;resizable=0;points=[];" parent="0-Zf8QYv5fdY0WKtleOx-103" vertex="1" connectable="0">
          <mxGeometry x="-0.6089" relative="1" as="geometry">
            <mxPoint as="offset" />
          </mxGeometry>
        </mxCell>
        <mxCell id="0-Zf8QYv5fdY0WKtleOx-106" value="" style="endArrow=classic;html=1;rounded=0;exitX=1.003;exitY=0.337;exitDx=0;exitDy=0;exitPerimeter=0;entryX=-0.024;entryY=0.608;entryDx=0;entryDy=0;entryPerimeter=0;fillColor=#d5e8d4;strokeColor=#82b366;" parent="1" source="0-Zf8QYv5fdY0WKtleOx-3" target="0-Zf8QYv5fdY0WKtleOx-39" edge="1">
          <mxGeometry width="50" height="50" relative="1" as="geometry">
            <mxPoint x="340" y="1700" as="sourcePoint" />
            <mxPoint x="390" y="1650" as="targetPoint" />
            <Array as="points">
              <mxPoint x="300" y="1228" />
              <mxPoint x="300" y="1870" />
              <mxPoint x="-270" y="1870" />
              <mxPoint x="-270" y="2292" />
            </Array>
          </mxGeometry>
        </mxCell>
        <mxCell id="0-Zf8QYv5fdY0WKtleOx-107" value="loc_IR_load" style="edgeLabel;html=1;align=center;verticalAlign=middle;resizable=0;points=[];" parent="0-Zf8QYv5fdY0WKtleOx-106" vertex="1" connectable="0">
          <mxGeometry x="-0.0164" y="1" relative="1" as="geometry">
            <mxPoint y="1" as="offset" />
          </mxGeometry>
        </mxCell>
        <mxCell id="0-Zf8QYv5fdY0WKtleOx-108" value="" style="endArrow=classic;html=1;rounded=0;entryX=0;entryY=0.25;entryDx=0;entryDy=0;fillColor=#1ba1e2;strokeColor=#006EAF;" parent="1" target="0-Zf8QYv5fdY0WKtleOx-64" edge="1">
          <mxGeometry width="50" height="50" relative="1" as="geometry">
            <mxPoint x="150" y="1780" as="sourcePoint" />
            <mxPoint x="300" y="2050" as="targetPoint" />
            <Array as="points">
              <mxPoint x="430" y="1780" />
              <mxPoint x="430" y="1283" />
            </Array>
          </mxGeometry>
        </mxCell>
        <mxCell id="0-Zf8QYv5fdY0WKtleOx-110" value="" style="endArrow=classic;html=1;rounded=0;entryX=0;entryY=0.75;entryDx=0;entryDy=0;fillColor=#ffe6cc;strokeColor=#d79b00;" parent="1" target="0-Zf8QYv5fdY0WKtleOx-64" edge="1">
          <mxGeometry width="50" height="50" relative="1" as="geometry">
            <mxPoint x="-200" y="935" as="sourcePoint" />
            <mxPoint x="60" y="1750" as="targetPoint" />
            <Array as="points">
              <mxPoint x="510" y="940" />
              <mxPoint x="510" y="1410" />
            </Array>
          </mxGeometry>
        </mxCell>
        <mxCell id="0-Zf8QYv5fdY0WKtleOx-111" value="loc_CCR" style="edgeLabel;html=1;align=center;verticalAlign=middle;resizable=0;points=[];" parent="0-Zf8QYv5fdY0WKtleOx-110" vertex="1" connectable="0">
          <mxGeometry x="0.027" y="1" relative="1" as="geometry">
            <mxPoint as="offset" />
          </mxGeometry>
        </mxCell>
        <mxCell id="0-Zf8QYv5fdY0WKtleOx-112" value="" style="endArrow=classic;html=1;rounded=0;entryX=0.012;entryY=0.432;entryDx=0;entryDy=0;entryPerimeter=0;exitX=1.002;exitY=0.677;exitDx=0;exitDy=0;exitPerimeter=0;" parent="1" source="0-Zf8QYv5fdY0WKtleOx-3" target="0-Zf8QYv5fdY0WKtleOx-24" edge="1">
          <mxGeometry width="50" height="50" relative="1" as="geometry">
            <mxPoint x="-150" y="1700" as="sourcePoint" />
            <mxPoint x="360" y="1140" as="targetPoint" />
            <Array as="points">
              <mxPoint x="950" y="1347" />
              <mxPoint x="950" y="1928" />
            </Array>
          </mxGeometry>
        </mxCell>
        <mxCell id="0-Zf8QYv5fdY0WKtleOx-113" value="loc_Accu_load" style="edgeLabel;html=1;align=center;verticalAlign=middle;resizable=0;points=[];" parent="0-Zf8QYv5fdY0WKtleOx-112" vertex="1" connectable="0">
          <mxGeometry x="-0.0257" relative="1" as="geometry">
            <mxPoint as="offset" />
          </mxGeometry>
        </mxCell>
        <mxCell id="0-Zf8QYv5fdY0WKtleOx-114" value="" style="endArrow=classic;html=1;rounded=0;entryX=-0.011;entryY=0.53;entryDx=0;entryDy=0;entryPerimeter=0;fillColor=#6d8764;strokeColor=#3A5431;" parent="1" target="0-Zf8QYv5fdY0WKtleOx-90" edge="1">
          <mxGeometry width="50" height="50" relative="1" as="geometry">
            <mxPoint x="370" y="2240" as="sourcePoint" />
            <mxPoint x="860" y="1790" as="targetPoint" />
          </mxGeometry>
        </mxCell>
        <mxCell id="0-Zf8QYv5fdY0WKtleOx-116" value="" style="endArrow=classic;html=1;rounded=0;entryX=0;entryY=0.795;entryDx=0;entryDy=0;entryPerimeter=0;fillColor=#6d8764;strokeColor=#3A5431;" parent="1" target="0-Zf8QYv5fdY0WKtleOx-31" edge="1">
          <mxGeometry width="50" height="50" relative="1" as="geometry">
            <mxPoint x="540" y="1925" as="sourcePoint" />
            <mxPoint x="830" y="1710" as="targetPoint" />
            <Array as="points">
              <mxPoint x="540" y="1190" />
            </Array>
          </mxGeometry>
        </mxCell>
        <mxCell id="0-Zf8QYv5fdY0WKtleOx-117" value="loc_oper_addr" style="edgeLabel;html=1;align=center;verticalAlign=middle;resizable=0;points=[];" parent="0-Zf8QYv5fdY0WKtleOx-116" vertex="1" connectable="0">
          <mxGeometry x="0.0112" relative="1" as="geometry">
            <mxPoint as="offset" />
          </mxGeometry>
        </mxCell>
        <mxCell id="0-Zf8QYv5fdY0WKtleOx-118" value="" style="endArrow=classic;html=1;rounded=0;entryX=0.006;entryY=0.578;entryDx=0;entryDy=0;entryPerimeter=0;exitX=1.015;exitY=0.426;exitDx=0;exitDy=0;exitPerimeter=0;fillColor=#6d8764;strokeColor=#3A5431;" parent="1" source="0-Zf8QYv5fdY0WKtleOx-39" target="0-Zf8QYv5fdY0WKtleOx-72" edge="1">
          <mxGeometry width="50" height="50" relative="1" as="geometry">
            <mxPoint x="81" y="2107" as="sourcePoint" />
            <mxPoint x="1118" y="1737" as="targetPoint" />
            <Array as="points">
              <mxPoint x="370" y="2240" />
              <mxPoint x="370" y="1925" />
            </Array>
          </mxGeometry>
        </mxCell>
        <mxCell id="0-Zf8QYv5fdY0WKtleOx-141" value="loc_oper_addr" style="edgeLabel;html=1;align=center;verticalAlign=middle;resizable=0;points=[];" parent="0-Zf8QYv5fdY0WKtleOx-118" vertex="1" connectable="0">
          <mxGeometry x="-0.5981" y="-1" relative="1" as="geometry">
            <mxPoint as="offset" />
          </mxGeometry>
        </mxCell>
        <mxCell id="0-Zf8QYv5fdY0WKtleOx-120" value="" style="endArrow=classic;html=1;rounded=0;entryX=0.018;entryY=0.463;entryDx=0;entryDy=0;entryPerimeter=0;exitX=1;exitY=0.5;exitDx=0;exitDy=0;fillColor=#b1ddf0;strokeColor=#10739e;" parent="1" source="0-Zf8QYv5fdY0WKtleOx-24" target="0-Zf8QYv5fdY0WKtleOx-93" edge="1">
          <mxGeometry width="50" height="50" relative="1" as="geometry">
            <mxPoint x="940" y="1930" as="sourcePoint" />
            <mxPoint x="990" y="1880" as="targetPoint" />
          </mxGeometry>
        </mxCell>
        <mxCell id="0-Zf8QYv5fdY0WKtleOx-121" value="loc_accu" style="edgeLabel;html=1;align=center;verticalAlign=middle;resizable=0;points=[];" parent="0-Zf8QYv5fdY0WKtleOx-120" vertex="1" connectable="0">
          <mxGeometry x="0.0001" y="-2" relative="1" as="geometry">
            <mxPoint x="-71" y="-1" as="offset" />
          </mxGeometry>
        </mxCell>
        <mxCell id="0-Zf8QYv5fdY0WKtleOx-122" value="" style="endArrow=classic;html=1;rounded=0;entryX=-0.007;entryY=0.437;entryDx=0;entryDy=0;entryPerimeter=0;fillColor=#b1ddf0;strokeColor=#10739e;" parent="1" target="0-Zf8QYv5fdY0WKtleOx-72" edge="1">
          <mxGeometry width="50" height="50" relative="1" as="geometry">
            <mxPoint x="1490" y="1944" as="sourcePoint" />
            <mxPoint x="1123" y="1863" as="targetPoint" />
            <Array as="points">
              <mxPoint x="1490" y="2100" />
              <mxPoint x="550" y="2110" />
              <mxPoint x="550" y="1889" />
            </Array>
          </mxGeometry>
        </mxCell>
        <mxCell id="0-Zf8QYv5fdY0WKtleOx-124" value="" style="endArrow=classic;html=1;rounded=0;entryX=-0.005;entryY=0.694;entryDx=0;entryDy=0;entryPerimeter=0;exitX=1;exitY=0.5;exitDx=0;exitDy=0;fillColor=#ffe6cc;strokeColor=#d79b00;" parent="1" source="0-Zf8QYv5fdY0WKtleOx-17" target="0-Zf8QYv5fdY0WKtleOx-3" edge="1">
          <mxGeometry width="50" height="50" relative="1" as="geometry">
            <mxPoint x="770" y="1530" as="sourcePoint" />
            <mxPoint x="820" y="1480" as="targetPoint" />
            <Array as="points">
              <mxPoint x="-200" y="935" />
              <mxPoint x="-200" y="1353" />
            </Array>
          </mxGeometry>
        </mxCell>
        <mxCell id="0-Zf8QYv5fdY0WKtleOx-125" value="loc_CCR" style="edgeLabel;html=1;align=center;verticalAlign=middle;resizable=0;points=[];" parent="0-Zf8QYv5fdY0WKtleOx-124" vertex="1" connectable="0">
          <mxGeometry x="0.0158" y="-1" relative="1" as="geometry">
            <mxPoint as="offset" />
          </mxGeometry>
        </mxCell>
        <mxCell id="0-Zf8QYv5fdY0WKtleOx-126" value="" style="endArrow=classic;html=1;rounded=0;exitX=0.996;exitY=0.576;exitDx=0;exitDy=0;exitPerimeter=0;entryX=-0.012;entryY=0.711;entryDx=0;entryDy=0;entryPerimeter=0;fillColor=#60a917;strokeColor=#2D7600;" parent="1" source="0-Zf8QYv5fdY0WKtleOx-64" target="0-Zf8QYv5fdY0WKtleOx-17" edge="1">
          <mxGeometry width="50" height="50" relative="1" as="geometry">
            <mxPoint x="670" y="1340" as="sourcePoint" />
            <mxPoint x="720" y="1290" as="targetPoint" />
            <Array as="points">
              <mxPoint x="1740" y="1364" />
              <mxPoint x="1740" y="790" />
              <mxPoint x="-600" y="790" />
              <mxPoint x="-600" y="988" />
            </Array>
          </mxGeometry>
        </mxCell>
        <mxCell id="0-Zf8QYv5fdY0WKtleOx-127" value="loc_Z_C_V_N" style="edgeLabel;html=1;align=center;verticalAlign=middle;resizable=0;points=[];" parent="0-Zf8QYv5fdY0WKtleOx-126" vertex="1" connectable="0">
          <mxGeometry x="-0.0014" relative="1" as="geometry">
            <mxPoint as="offset" />
          </mxGeometry>
        </mxCell>
        <mxCell id="0-Zf8QYv5fdY0WKtleOx-128" value="" style="endArrow=classic;html=1;rounded=0;exitX=1.001;exitY=0.573;exitDx=0;exitDy=0;exitPerimeter=0;entryX=0;entryY=0.5;entryDx=0;entryDy=0;fillColor=#d5e8d4;strokeColor=#82b366;" parent="1" source="0-Zf8QYv5fdY0WKtleOx-72" target="0-Zf8QYv5fdY0WKtleOx-47" edge="1">
          <mxGeometry width="50" height="50" relative="1" as="geometry">
            <mxPoint x="1180" y="2330" as="sourcePoint" />
            <mxPoint x="1230" y="2280" as="targetPoint" />
            <Array as="points">
              <mxPoint x="990" y="1923" />
              <mxPoint x="990" y="1555" />
            </Array>
          </mxGeometry>
        </mxCell>
        <mxCell id="0-Zf8QYv5fdY0WKtleOx-129" value="loc_oper2" style="edgeLabel;html=1;align=center;verticalAlign=middle;resizable=0;points=[];" parent="0-Zf8QYv5fdY0WKtleOx-128" vertex="1" connectable="0">
          <mxGeometry x="0.0055" y="1" relative="1" as="geometry">
            <mxPoint as="offset" />
          </mxGeometry>
        </mxCell>
        <mxCell id="0-Zf8QYv5fdY0WKtleOx-130" value="" style="endArrow=classic;html=1;rounded=0;exitX=1.002;exitY=0.447;exitDx=0;exitDy=0;exitPerimeter=0;entryX=-0.005;entryY=0.357;entryDx=0;entryDy=0;entryPerimeter=0;fillColor=#d80073;strokeColor=#A50040;movable=1;resizable=1;rotatable=1;deletable=1;editable=1;locked=0;connectable=1;startSize=3;" parent="1" source="0-Zf8QYv5fdY0WKtleOx-72" target="0-Zf8QYv5fdY0WKtleOx-47" edge="1">
          <mxGeometry width="50" height="50" relative="1" as="geometry">
            <mxPoint x="1110" y="2223" as="sourcePoint" />
            <mxPoint x="1330" y="1485" as="targetPoint" />
            <Array as="points">
              <mxPoint x="910" y="1890" />
              <mxPoint x="910" y="1520" />
            </Array>
          </mxGeometry>
        </mxCell>
        <mxCell id="0-Zf8QYv5fdY0WKtleOx-131" value="loc_oper1" style="edgeLabel;html=1;align=center;verticalAlign=middle;resizable=0;points=[];" parent="0-Zf8QYv5fdY0WKtleOx-130" vertex="1" connectable="0">
          <mxGeometry x="0.0055" y="1" relative="1" as="geometry">
            <mxPoint as="offset" />
          </mxGeometry>
        </mxCell>
        <mxCell id="0-Zf8QYv5fdY0WKtleOx-132" value="" style="endArrow=classic;html=1;rounded=0;exitX=1.001;exitY=0.448;exitDx=0;exitDy=0;exitPerimeter=0;entryX=0.003;entryY=0.416;entryDx=0;entryDy=0;entryPerimeter=0;fillColor=#fad9d5;strokeColor=#ae4132;" parent="1" source="0-Zf8QYv5fdY0WKtleOx-47" target="0-Zf8QYv5fdY0WKtleOx-64" edge="1">
          <mxGeometry width="50" height="50" relative="1" as="geometry">
            <mxPoint x="1640" y="1470" as="sourcePoint" />
            <mxPoint x="1690" y="1420" as="targetPoint" />
            <Array as="points">
              <mxPoint x="1340" y="1542" />
              <mxPoint x="1340" y="1324" />
            </Array>
          </mxGeometry>
        </mxCell>
        <mxCell id="0-Zf8QYv5fdY0WKtleOx-133" value="loc_operande1" style="edgeLabel;html=1;align=center;verticalAlign=middle;resizable=0;points=[];" parent="0-Zf8QYv5fdY0WKtleOx-132" vertex="1" connectable="0">
          <mxGeometry x="0.0024" y="-3" relative="1" as="geometry">
            <mxPoint as="offset" />
          </mxGeometry>
        </mxCell>
        <mxCell id="0-Zf8QYv5fdY0WKtleOx-134" value="" style="endArrow=classic;html=1;rounded=0;exitX=1.005;exitY=0.595;exitDx=0;exitDy=0;exitPerimeter=0;entryX=-0.002;entryY=0.606;entryDx=0;entryDy=0;entryPerimeter=0;fillColor=#dae8fc;gradientColor=#7ea6e0;strokeColor=#6c8ebf;" parent="1" source="0-Zf8QYv5fdY0WKtleOx-47" target="0-Zf8QYv5fdY0WKtleOx-64" edge="1">
          <mxGeometry width="50" height="50" relative="1" as="geometry">
            <mxPoint x="1580" y="1472" as="sourcePoint" />
            <mxPoint x="1810" y="1424" as="targetPoint" />
            <Array as="points">
              <mxPoint x="1410" y="1579" />
              <mxPoint x="1410" y="1372" />
            </Array>
          </mxGeometry>
        </mxCell>
        <mxCell id="0-Zf8QYv5fdY0WKtleOx-135" value="loc_operande2" style="edgeLabel;html=1;align=center;verticalAlign=middle;resizable=0;points=[];" parent="0-Zf8QYv5fdY0WKtleOx-134" vertex="1" connectable="0">
          <mxGeometry x="0.0024" y="-3" relative="1" as="geometry">
            <mxPoint as="offset" />
          </mxGeometry>
        </mxCell>
        <mxCell id="0-Zf8QYv5fdY0WKtleOx-136" value="" style="endArrow=classic;html=1;rounded=0;entryX=0.002;entryY=0.647;entryDx=0;entryDy=0;entryPerimeter=0;exitX=1.001;exitY=0.564;exitDx=0;exitDy=0;exitPerimeter=0;fillColor=#fa6800;strokeColor=#C73500;" parent="1" source="0-Zf8QYv5fdY0WKtleOx-3" target="0-Zf8QYv5fdY0WKtleOx-47" edge="1">
          <mxGeometry width="50" height="50" relative="1" as="geometry">
            <mxPoint x="230" y="1690" as="sourcePoint" />
            <mxPoint x="1010" y="1490" as="targetPoint" />
            <Array as="points">
              <mxPoint x="330" y="1307" />
              <mxPoint x="330" y="1592" />
            </Array>
          </mxGeometry>
        </mxCell>
        <mxCell id="0-Zf8QYv5fdY0WKtleOx-137" value="loc_oper_load" style="edgeLabel;html=1;align=center;verticalAlign=middle;resizable=0;points=[];" parent="0-Zf8QYv5fdY0WKtleOx-136" vertex="1" connectable="0">
          <mxGeometry x="0.0252" y="1" relative="1" as="geometry">
            <mxPoint as="offset" />
          </mxGeometry>
        </mxCell>
        <mxCell id="0-Zf8QYv5fdY0WKtleOx-138" value="" style="endArrow=classic;html=1;rounded=0;exitX=1.006;exitY=0.586;exitDx=0;exitDy=0;exitPerimeter=0;entryX=-0.011;entryY=0.549;entryDx=0;entryDy=0;entryPerimeter=0;fillColor=#1ba1e2;strokeColor=#006EAF;" parent="1" source="0-Zf8QYv5fdY0WKtleOx-39" target="0-Zf8QYv5fdY0WKtleOx-3" edge="1">
          <mxGeometry width="50" height="50" relative="1" as="geometry">
            <mxPoint x="530" y="2287" as="sourcePoint" />
            <mxPoint x="1490" y="1343" as="targetPoint" />
            <Array as="points">
              <mxPoint x="150" y="2287" />
              <mxPoint x="150" y="1780" />
              <mxPoint x="-250" y="1780" />
              <mxPoint x="-250" y="1302" />
            </Array>
          </mxGeometry>
        </mxCell>
        <mxCell id="0-Zf8QYv5fdY0WKtleOx-142" value="loc_opcode" style="edgeLabel;html=1;align=center;verticalAlign=middle;resizable=0;points=[];" parent="0-Zf8QYv5fdY0WKtleOx-138" vertex="1" connectable="0">
          <mxGeometry x="-0.5803" y="3" relative="1" as="geometry">
            <mxPoint as="offset" />
          </mxGeometry>
        </mxCell>
        <mxCell id="0-Zf8QYv5fdY0WKtleOx-144" value="" style="endArrow=classic;html=1;rounded=0;entryX=0.002;entryY=0.448;entryDx=0;entryDy=0;entryPerimeter=0;exitX=1.016;exitY=0.538;exitDx=0;exitDy=0;exitPerimeter=0;fillColor=#f8cecc;gradientColor=#ea6b66;strokeColor=#b85450;" parent="1" source="0-Zf8QYv5fdY0WKtleOx-81" target="0-Zf8QYv5fdY0WKtleOx-3" edge="1">
          <mxGeometry width="50" height="50" relative="1" as="geometry">
            <mxPoint x="-690" y="1350" as="sourcePoint" />
            <mxPoint x="-640" y="1300" as="targetPoint" />
            <Array as="points">
              <mxPoint x="-700" y="1407" />
              <mxPoint x="-700" y="1270" />
            </Array>
          </mxGeometry>
        </mxCell>
        <mxCell id="0-Zf8QYv5fdY0WKtleOx-146" value="" style="endArrow=classic;html=1;rounded=0;fillColor=#f8cecc;gradientColor=#ea6b66;strokeColor=#b85450;" parent="1" edge="1">
          <mxGeometry width="50" height="50" relative="1" as="geometry">
            <mxPoint x="-700" y="1270" as="sourcePoint" />
            <mxPoint x="-530" y="920" as="targetPoint" />
            <Array as="points">
              <mxPoint x="-700" y="920" />
            </Array>
          </mxGeometry>
        </mxCell>
        <mxCell id="0-Zf8QYv5fdY0WKtleOx-147" value="" style="endArrow=classic;html=1;rounded=0;entryX=0.008;entryY=0.424;entryDx=0;entryDy=0;entryPerimeter=0;fillColor=#f8cecc;gradientColor=#ea6b66;strokeColor=#b85450;" parent="1" target="0-Zf8QYv5fdY0WKtleOx-39" edge="1">
          <mxGeometry width="50" height="50" relative="1" as="geometry">
            <mxPoint x="-700" y="1390" as="sourcePoint" />
            <mxPoint x="-580" y="1730" as="targetPoint" />
            <Array as="points">
              <mxPoint x="-700" y="2250" />
            </Array>
          </mxGeometry>
        </mxCell>
        <mxCell id="0-Zf8QYv5fdY0WKtleOx-148" value="" style="endArrow=classic;html=1;rounded=0;entryX=-0.007;entryY=0.808;entryDx=0;entryDy=0;entryPerimeter=0;fillColor=#f8cecc;gradientColor=#ea6b66;strokeColor=#b85450;" parent="1" target="0-Zf8QYv5fdY0WKtleOx-47" edge="1">
          <mxGeometry width="50" height="50" relative="1" as="geometry">
            <mxPoint x="-700" y="1630" as="sourcePoint" />
            <mxPoint x="-420" y="1710" as="targetPoint" />
          </mxGeometry>
        </mxCell>
        <mxCell id="0-Zf8QYv5fdY0WKtleOx-149" value="" style="endArrow=classic;html=1;rounded=0;entryX=0.007;entryY=0.441;entryDx=0;entryDy=0;entryPerimeter=0;fillColor=#f8cecc;gradientColor=#ea6b66;strokeColor=#b85450;" parent="1" target="0-Zf8QYv5fdY0WKtleOx-31" edge="1">
          <mxGeometry width="50" height="50" relative="1" as="geometry">
            <mxPoint x="-700" y="1080" as="sourcePoint" />
            <mxPoint x="-360" y="1120" as="targetPoint" />
            <Array as="points">
              <mxPoint x="590" y="1080" />
              <mxPoint x="590" y="1100" />
            </Array>
          </mxGeometry>
        </mxCell>
        <mxCell id="0-Zf8QYv5fdY0WKtleOx-150" value="" style="endArrow=classic;html=1;rounded=0;entryX=0;entryY=0.75;entryDx=0;entryDy=0;fillColor=#f8cecc;gradientColor=#ea6b66;strokeColor=#b85450;" parent="1" target="0-Zf8QYv5fdY0WKtleOx-24" edge="1">
          <mxGeometry width="50" height="50" relative="1" as="geometry">
            <mxPoint x="-700" y="2100" as="sourcePoint" />
            <mxPoint x="-30" y="2070" as="targetPoint" />
            <Array as="points">
              <mxPoint x="1040" y="2090" />
              <mxPoint x="1040" y="2008" />
            </Array>
          </mxGeometry>
        </mxCell>
        <mxCell id="0-Zf8QYv5fdY0WKtleOx-151" value="" style="endArrow=classic;html=1;rounded=0;exitX=1.004;exitY=0.72;exitDx=0;exitDy=0;exitPerimeter=0;entryX=-0.012;entryY=0.308;entryDx=0;entryDy=0;entryPerimeter=0;fillColor=#0050ef;strokeColor=#001DBC;" parent="1" source="0-Zf8QYv5fdY0WKtleOx-55" target="0-Zf8QYv5fdY0WKtleOx-17" edge="1">
          <mxGeometry width="50" height="50" relative="1" as="geometry">
            <mxPoint x="-750" y="960" as="sourcePoint" />
            <mxPoint x="-700" y="910" as="targetPoint" />
            <Array as="points">
              <mxPoint x="-740" y="1056" />
              <mxPoint x="-740" y="887" />
            </Array>
          </mxGeometry>
        </mxCell>
        <mxCell id="0-Zf8QYv5fdY0WKtleOx-152" value="" style="endArrow=classic;html=1;rounded=0;entryX=0.002;entryY=0.205;entryDx=0;entryDy=0;entryPerimeter=0;fillColor=#0050ef;strokeColor=#001DBC;" parent="1" target="0-Zf8QYv5fdY0WKtleOx-39" edge="1">
          <mxGeometry width="50" height="50" relative="1" as="geometry">
            <mxPoint x="-740" y="1050" as="sourcePoint" />
            <mxPoint x="-730" y="1180" as="targetPoint" />
            <Array as="points">
              <mxPoint x="-740" y="2191" />
            </Array>
          </mxGeometry>
        </mxCell>
        <mxCell id="0-Zf8QYv5fdY0WKtleOx-153" value="" style="endArrow=classic;html=1;rounded=0;entryX=0.005;entryY=0.578;entryDx=0;entryDy=0;entryPerimeter=0;fillColor=#0050ef;strokeColor=#001DBC;" parent="1" target="0-Zf8QYv5fdY0WKtleOx-24" edge="1">
          <mxGeometry width="50" height="50" relative="1" as="geometry">
            <mxPoint x="-740" y="2050" as="sourcePoint" />
            <mxPoint x="960" y="2130" as="targetPoint" />
            <Array as="points">
              <mxPoint x="970" y="2040" />
              <mxPoint x="970" y="1965" />
            </Array>
          </mxGeometry>
        </mxCell>
        <mxCell id="0-Zf8QYv5fdY0WKtleOx-154" value="" style="endArrow=classic;html=1;rounded=0;entryX=0;entryY=0.207;entryDx=0;entryDy=0;entryPerimeter=0;fillColor=#0050ef;strokeColor=#001DBC;" parent="1" target="0-Zf8QYv5fdY0WKtleOx-47" edge="1">
          <mxGeometry width="50" height="50" relative="1" as="geometry">
            <mxPoint x="-744.2857142857143" y="1550" as="sourcePoint" />
            <mxPoint x="730" y="1470" as="targetPoint" />
            <Array as="points">
              <mxPoint x="830" y="1550" />
              <mxPoint x="830" y="1482" />
            </Array>
          </mxGeometry>
        </mxCell>
        <mxCell id="0-Zf8QYv5fdY0WKtleOx-155" value="" style="endArrow=classic;html=1;rounded=0;entryX=0.013;entryY=0.32;entryDx=0;entryDy=0;entryPerimeter=0;fillColor=#0050ef;strokeColor=#001DBC;" parent="1" target="0-Zf8QYv5fdY0WKtleOx-3" edge="1">
          <mxGeometry width="50" height="50" relative="1" as="geometry">
            <mxPoint x="-740" y="1222" as="sourcePoint" />
            <mxPoint x="-330" y="1190" as="targetPoint" />
          </mxGeometry>
        </mxCell>
        <mxCell id="0-Zf8QYv5fdY0WKtleOx-156" value="" style="endArrow=classic;html=1;rounded=0;entryX=0.013;entryY=0.168;entryDx=0;entryDy=0;entryPerimeter=0;fillColor=#0050ef;strokeColor=#001DBC;" parent="1" target="0-Zf8QYv5fdY0WKtleOx-31" edge="1">
          <mxGeometry width="50" height="50" relative="1" as="geometry">
            <mxPoint x="-740" y="1130" as="sourcePoint" />
            <mxPoint x="290" y="1000" as="targetPoint" />
            <Array as="points">
              <mxPoint x="-230" y="1130" />
              <mxPoint x="-230" y="1032" />
            </Array>
          </mxGeometry>
        </mxCell>
        <mxCell id="9DxtKg8gXfVsGl6sE2eN-11" value="" style="group" parent="1" vertex="1" connectable="0">
          <mxGeometry x="1130" y="310" width="250" height="190" as="geometry" />
        </mxCell>
        <mxCell id="9DxtKg8gXfVsGl6sE2eN-12" value="Stack" style="rounded=0;whiteSpace=wrap;html=1;container=0;verticalAlign=top;fontSize=24;" parent="9DxtKg8gXfVsGl6sE2eN-11" vertex="1">
          <mxGeometry x="0.003881830316721846" width="249.99611816968326" height="190" as="geometry" />
        </mxCell>
        <mxCell id="9DxtKg8gXfVsGl6sE2eN-13" value="&lt;div&gt;addr_o (8)&lt;/div&gt;" style="edgeLabel;html=1;align=right;verticalAlign=middle;resizable=0;points=[];container=0;" parent="9DxtKg8gXfVsGl6sE2eN-11" vertex="1" connectable="0">
          <mxGeometry x="244.7941537667271" y="94.9992631554951" as="geometry" />
        </mxCell>
        <mxCell id="9DxtKg8gXfVsGl6sE2eN-14" value="addr_i (8)" style="edgeLabel;html=1;align=left;verticalAlign=middle;resizable=0;points=[];container=0;" parent="9DxtKg8gXfVsGl6sE2eN-11" vertex="1" connectable="0">
          <mxGeometry x="0.007817867957110139" y="50.00346427418533" as="geometry" />
        </mxCell>
        <mxCell id="9DxtKg8gXfVsGl6sE2eN-15" value="push_pop" style="edgeLabel;html=1;align=left;verticalAlign=middle;resizable=0;points=[];container=0;" parent="9DxtKg8gXfVsGl6sE2eN-11" vertex="1" connectable="0">
          <mxGeometry y="80" as="geometry" />
        </mxCell>
        <mxCell id="9DxtKg8gXfVsGl6sE2eN-16" value="clk_i" style="edgeLabel;html=1;align=left;verticalAlign=middle;resizable=0;points=[];container=0;" parent="9DxtKg8gXfVsGl6sE2eN-11" vertex="1" connectable="0">
          <mxGeometry x="0.007817867957111702" y="110" as="geometry" />
        </mxCell>
        <mxCell id="9DxtKg8gXfVsGl6sE2eN-17" value="reset_i" style="edgeLabel;html=1;align=left;verticalAlign=middle;resizable=0;points=[];container=0;" parent="9DxtKg8gXfVsGl6sE2eN-11" vertex="1" connectable="0">
          <mxGeometry x="0.007817867957101043" y="140" as="geometry" />
        </mxCell>
        <mxCell id="9DxtKg8gXfVsGl6sE2eN-22" value="" style="endArrow=classic;html=1;rounded=0;exitX=1.004;exitY=0.046;exitDx=0;exitDy=0;exitPerimeter=0;entryX=-0.005;entryY=0.549;entryDx=0;entryDy=0;entryPerimeter=0;" parent="1" source="0-Zf8QYv5fdY0WKtleOx-3" target="JADoscV3mwJkxlEIk08H-1" edge="1">
          <mxGeometry width="50" height="50" relative="1" as="geometry">
            <mxPoint x="300" y="1110" as="sourcePoint" />
            <mxPoint x="1650" y="900" as="targetPoint" />
            <Array as="points">
              <mxPoint x="310" y="1126" />
              <mxPoint x="310" y="900" />
            </Array>
          </mxGeometry>
        </mxCell>
        <mxCell id="9DxtKg8gXfVsGl6sE2eN-24" value="" style="endArrow=classic;html=1;rounded=0;exitX=1.116;exitY=0.418;exitDx=0;exitDy=0;exitPerimeter=0;" parent="1" source="JADoscV3mwJkxlEIk08H-2" edge="1">
          <mxGeometry width="50" height="50" relative="1" as="geometry">
            <mxPoint x="979.9999999999995" y="914.9999999999998" as="sourcePoint" />
            <mxPoint x="1200" y="1220" as="targetPoint" />
            <Array as="points">
              <mxPoint x="-707" y="760" />
              <mxPoint x="-80" y="760" />
              <mxPoint x="-80" y="850" />
              <mxPoint x="1020" y="850" />
              <mxPoint x="1020" y="1220" />
            </Array>
          </mxGeometry>
        </mxCell>
        <mxCell id="9DxtKg8gXfVsGl6sE2eN-28" value="" style="endArrow=classic;html=1;rounded=0;entryX=0.007;entryY=0.331;entryDx=0;entryDy=0;entryPerimeter=0;" parent="1" target="0-Zf8QYv5fdY0WKtleOx-31" edge="1">
          <mxGeometry width="50" height="50" relative="1" as="geometry">
            <mxPoint x="690" y="900" as="sourcePoint" />
            <mxPoint x="830" y="1050" as="targetPoint" />
            <Array as="points">
              <mxPoint x="690" y="1073" />
            </Array>
          </mxGeometry>
        </mxCell>
        <mxCell id="JADoscV3mwJkxlEIk08H-1" value="&lt;div&gt;PushPop(8&lt;span style=&quot;background-color: initial;&quot;&gt;)&lt;/span&gt;&lt;/div&gt;" style="text;html=1;align=right;verticalAlign=middle;resizable=0;points=[];autosize=1;strokeColor=none;fillColor=none;fontSize=32;" vertex="1" parent="1">
          <mxGeometry x="1610" y="870" width="190" height="50" as="geometry" />
        </mxCell>
        <mxCell id="JADoscV3mwJkxlEIk08H-2" value="&lt;div style=&quot;font-size: 32px;&quot; align=&quot;left&quot;&gt;&lt;font style=&quot;font-size: 32px;&quot;&gt;restore_i (8)&lt;/font&gt;&lt;/div&gt;" style="text;html=1;align=left;verticalAlign=middle;resizable=0;points=[];autosize=1;strokeColor=none;fillColor=none;" vertex="1" parent="1">
          <mxGeometry x="-930" y="1660" width="200" height="50" as="geometry" />
        </mxCell>
      </root>
    </mxGraphModel>
  </diagram>
</mxfile>
